<svg width="45" height="45" viewBox="0 0 45 45" fill="none" xmlns="http://www.w3.org/2000/svg">
<path d="M24.8137 0C27.3449 0.00674984 28.6296 0.0202495 29.7389 0.0517488L30.1753 0.0674984C30.6793 0.0854979 31.1766 0.107997 31.7773 0.134997C34.1712 0.247494 35.8047 0.625486 37.2379 1.18122C38.7229 1.75271 39.9739 2.52669 41.2248 3.77541C42.3689 4.90015 43.2542 6.26068 43.819 7.76232C44.3748 9.19554 44.7528 10.829 44.8652 13.2252C44.8923 13.8237 44.9147 14.3209 44.9327 14.8272L44.9462 15.2636C44.98 16.3706 44.9935 17.6553 44.998 20.1865L45.0002 21.865V24.8124C45.0058 26.4535 44.9885 28.0947 44.9485 29.7353L44.935 30.1718C44.917 30.678 44.8945 31.1753 44.8675 31.7738C44.755 34.17 44.3725 35.8012 43.819 37.2366C43.2558 38.7391 42.3703 40.1 41.2248 41.2235C40.0998 42.3672 38.7393 43.2524 37.2379 43.8177C35.8047 44.3735 34.1712 44.7515 31.7773 44.864C31.2434 44.8891 30.7094 44.9116 30.1753 44.9314L29.7389 44.945C28.6296 44.9764 27.3449 44.9922 24.8137 44.9967L23.1353 44.999H20.1901C18.5482 45.0046 16.9063 44.9874 15.2649 44.9472L14.8285 44.9337C14.2943 44.9135 13.7603 44.8902 13.2265 44.864C10.8325 44.7515 9.19908 44.3735 7.76362 43.8177C6.26216 43.2538 4.90217 42.3684 3.77896 41.2235C2.63384 40.0992 1.74776 38.7386 1.18252 37.2366C0.626784 35.8034 0.248792 34.17 0.136295 31.7738C0.111228 31.2399 0.0887282 30.7059 0.0687966 30.1718L0.0575471 29.7353C0.0160852 28.0947 -0.00266638 26.4536 0.00129822 24.8124V20.1865C-0.00498131 18.5454 0.0115201 16.9043 0.0507972 15.2636L0.0665468 14.8272C0.0845464 14.3209 0.107046 13.8237 0.134045 13.2252C0.246543 10.829 0.624533 9.19779 1.18027 7.76232C1.74526 6.25914 2.63311 4.89819 3.78121 3.77541C4.90414 2.63126 6.26323 1.74593 7.76362 1.18122C9.19908 0.625486 10.8303 0.247494 13.2265 0.134997C13.825 0.107997 14.3245 0.0854979 14.8285 0.0674984L15.2649 0.0539986C16.9056 0.0140233 18.5467 -0.00322799 20.1878 0.00224978L24.8137 0ZM22.5008 11.2497C19.5172 11.2497 16.6557 12.435 14.546 14.5447C12.4363 16.6544 11.251 19.5159 11.251 22.4995C11.251 25.4831 12.4363 28.3445 14.546 30.4542C16.6557 32.564 19.5172 33.7492 22.5008 33.7492C25.4844 33.7492 28.3458 32.564 30.4555 30.4542C32.5653 28.3445 33.7505 25.4831 33.7505 22.4995C33.7505 19.5159 32.5653 16.6544 30.4555 14.5447C28.3458 12.435 25.4844 11.2497 22.5008 11.2497ZM22.5008 15.7496C23.3872 15.7495 24.2649 15.9239 25.0839 16.263C25.9029 16.6021 26.6471 17.0991 27.274 17.7258C27.9008 18.3525 28.3982 19.0965 28.7375 19.9154C29.0769 20.7343 29.2516 21.6119 29.2517 22.4984C29.2519 23.3848 29.0774 24.2625 28.7384 25.0815C28.3993 25.9005 27.9022 26.6447 27.2756 27.2715C26.6489 27.8984 25.9049 28.3957 25.086 28.7351C24.2671 29.0744 23.3894 29.2492 22.503 29.2493C20.7129 29.2493 18.996 28.5382 17.7302 27.2723C16.4643 26.0065 15.7532 24.2896 15.7532 22.4995C15.7532 20.7093 16.4643 18.9925 17.7302 17.7266C18.996 16.4608 20.7129 15.7496 22.503 15.7496M34.3152 7.87482C33.5693 7.87482 32.854 8.17113 32.3266 8.69856C31.7991 9.22599 31.5028 9.94135 31.5028 10.6873C31.5028 11.4332 31.7991 12.1485 32.3266 12.6759C32.854 13.2034 33.5693 13.4997 34.3152 13.4997C35.0611 13.4997 35.7765 13.2034 36.3039 12.6759C36.8314 12.1485 37.1277 11.4332 37.1277 10.6873C37.1277 9.94135 36.8314 9.22599 36.3039 8.69856C35.7765 8.17113 35.0611 7.87482 34.3152 7.87482Z" fill="#A5D81F"/>
</svg>
