<svg width="19" height="18" viewBox="0 0 19 18" fill="none" xmlns="http://www.w3.org/2000/svg">
<path d="M18.624 17.64C18.5608 17.7495 18.4699 17.8404 18.3604 17.9036C18.2509 17.9668 18.1267 18 18.0002 18H0.719301C0.592971 17.9999 0.468897 17.9665 0.35954 17.9033C0.250183 17.84 0.159392 17.7491 0.0962824 17.6397C0.0331732 17.5303 -3.24092e-05 17.4062 2.37359e-08 17.2799C3.24567e-05 17.1536 0.0333017 17.0295 0.0964672 16.9201C1.46724 14.5508 3.57966 12.8518 6.04489 12.0464C4.82548 11.3206 3.87807 10.2147 3.34815 8.89845C2.81824 7.58222 2.73513 6.12846 3.11158 4.76042C3.48803 3.39239 4.30323 2.18573 5.43198 1.32574C6.56074 0.465755 7.94064 0 9.35977 0C10.7789 0 12.1588 0.465755 13.2876 1.32574C14.4163 2.18573 15.2315 3.39239 15.608 4.76042C15.9844 6.12846 15.9013 7.58222 15.3714 8.89845C14.8415 10.2147 13.8941 11.3206 12.6747 12.0464C15.1399 12.8518 17.2523 14.5508 18.6231 16.9201C18.6864 17.0295 18.7198 17.1536 18.72 17.28C18.7202 17.4063 18.687 17.5305 18.624 17.64Z" fill="white"/>
</svg>
